<svg id="Capa_1" enable-background="new 0 0 511.995 511.995" height="512" viewBox="0 0 511.995 511.995" width="512" xmlns="http://www.w3.org/2000/svg"><g><path d="m500.039 284.685c0-14.862-12.092-26.954-26.954-26.954s-26.954 12.092-26.954 26.954c0 4.291 1.013 8.349 2.805 11.954h-10.739v-48.427c0-4.142-3.357-7.5-7.5-7.5s-7.5 3.358-7.5 7.5v48.427h-14.867v-259.609c0-4.142-3.357-7.5-7.5-7.5h-289.666c-4.143 0-7.5 3.358-7.5 7.5v259.608h-14.869v-279.008c0-1.45 1.18-2.63 2.63-2.63h329.142c1.45 0 2.63 1.18 2.63 2.63v194.467c0 4.142 3.357 7.5 7.5 7.5s7.5-3.358 7.5-7.5v-194.467c0-9.721-7.909-17.63-17.63-17.63h-329.142c-9.721 0-17.63 7.909-17.63 17.63v279.008h-10.735c1.792-3.605 2.805-7.662 2.805-11.954 0-14.862-12.092-26.954-26.954-26.954s-26.954 12.092-26.954 26.954c0 14.255 11.126 25.954 25.15 26.886 2.285 6.344 5.632 22.28-2.452 50.823-12.76 45.046-5.063 75.125 1.977 90.767-8.137 1.559-14.309 8.721-14.309 17.306v23.898c0 9.721 7.909 17.63 17.63 17.63h70.756c4.143 0 7.5-3.358 7.5-7.5s-3.357-7.5-7.5-7.5h-70.756c-1.45 0-2.63-1.18-2.63-2.63v-23.898c0-1.45 1.18-2.63 2.63-2.63h432.087c1.45 0 2.631 1.18 2.631 2.63v23.898c0 1.45-1.181 2.63-2.631 2.63h-325.217c-4.143 0-7.5 3.358-7.5 7.5s3.357 7.5 7.5 7.5h325.217c9.722 0 17.631-7.909 17.631-17.63v-23.898c0-8.584-6.17-15.745-14.307-17.305 7.04-15.643 14.737-45.724 1.977-90.768-8.095-28.575-4.709-44.538-2.449-50.823 14.021-.933 25.147-12.631 25.147-26.885zm-26.955-11.955c6.592 0 11.954 5.363 11.954 11.954s-5.362 11.954-11.954 11.954-11.954-5.362-11.954-11.954 5.363-11.954 11.954-11.954zm-13.832 38.908c-2.531 10.351-3.897 28.178 3.657 54.843 13.934 49.189.765 77.897-4.222 86.355h-20.49v-141.198zm-36.055 0v141.199h-14.867v-141.199zm-133.586 141.199v-73.021h7.379c4.143 0 7.5-3.358 7.5-7.5s-3.357-7.5-7.5-7.5h-155.283v-27.331h228.58v27.331h-37.183c-4.143 0-7.5 3.358-7.5 7.5s3.357 7.5 7.5 7.5h26.2c8.32 41.193-3.092 65.611-7.455 73.021zm-155.902-141.199c.29 3.935.95 7.844 1.984 11.684-5.233 1.911-8.987 6.924-8.987 12.811v19.941h-8.043v-44.436zm26.58-26.953c0-6.591 5.362-11.954 11.954-11.954 3.612 0 6.866 1.607 9.067 4.166-1.165.742-2.212 1.688-3.092 2.815-3.954 5.068-7.054 10.599-9.271 16.451-2.36-2.446-4.924-4.691-7.657-6.729-.652-1.496-1.001-3.086-1.001-4.749zm57.211 26.953c.269 3.65.867 7.275 1.777 10.846h-8.55c.083-1.323.137-2.649.137-3.973 0-2.315-.135-4.606-.378-6.873zm83.792 0c.269 3.65.866 7.275 1.776 10.846h-8.549c.083-1.323.137-2.649.137-3.973 0-2.315-.135-4.606-.378-6.873zm26.506-26.953c0-6.591 5.362-11.954 11.954-11.954 3.626 0 6.893 1.62 9.095 4.198-1.146.737-2.177 1.671-3.045 2.782-3.956 5.07-7.057 10.603-9.275 16.459-2.397-2.484-5-4.766-7.779-6.828-.624-1.472-.95-3.036-.95-4.657zm-9.08 37.799c-2.56-7.491-3.239-15.401-1.96-23.194 6.48 4.075 11.892 9.634 15.783 16.246-.045.988-.073 1.979-.073 2.975 0 1.324.055 2.65.137 3.973zm28.912 0c-.108-1.32-.162-2.648-.162-3.973 0-9.583 2.751-18.693 7.989-26.564 5.239 7.873 7.99 16.983 7.99 26.564 0 1.324-.055 2.652-.163 3.973zm-112.703 0c-2.56-7.491-3.24-15.401-1.96-23.195 6.485 4.077 11.891 9.642 15.783 16.259-.045.984-.073 1.971-.073 2.963 0 1.325.054 2.65.137 3.973zm28.912 0c-.108-1.32-.163-2.647-.163-3.973 0-9.582 2.751-18.692 7.989-26.564 5.239 7.873 7.99 16.983 7.99 26.564 0 1.325-.055 2.653-.163 3.973zm10.772-47.126c-.952-.234-1.937-.363-2.944-.363-3.067 0-5.941 1.137-8.17 3.148v-233.613h11.114zm-26.114 16.812c-3.402-2.926-7.123-5.494-11.114-7.653v-239.987h11.114zm-95.806 87.645h10.619l-6.944 65.27c-4.775-11.706-10.092-33.499-3.675-65.27zm-1.555-57.331c-2.56-7.491-3.241-15.403-1.962-23.195 6.492 4.081 11.887 9.65 15.782 16.274-.044.979-.072 1.961-.072 2.948 0 1.325.054 2.65.137 3.973zm28.911 0c-.108-1.32-.163-2.647-.163-3.973 0-9.582 2.751-18.692 7.989-26.564 5.239 7.873 7.99 16.983 7.99 26.564 0 1.325-.056 2.653-.163 3.973zm-61.383 48.59h8.97c1.639 4.233 5.321 7.452 9.837 8.428-6.623 35.444-.12 59.832 5.865 73.334h-24.672zm59.732 8.741h43.987v73.021h-51.755zm58.986 0h11.114v73.021h-11.114zm26.115 0h11.114v73.021h-11.114zm111.027-.313c6.143-1.329 10.763-6.8 10.763-13.335v-30.034c0-5.153-2.872-9.646-7.098-11.968.167-1.88.26-3.769.26-5.653 0-2.315-.135-4.606-.378-6.873h15.26v141.199h-24.67c5.983-13.503 12.485-37.891 5.863-73.336zm18.806-82.864h-18.77c-1.961-5.305-4.644-10.351-8.029-15.032-1.552-13.617-13.051-23.876-26.778-23.876-14.269 0-25.977 11.146-26.89 25.189-1.046.172-2.079.465-3.074.914-3.462 1.561-5.964 4.575-6.863 8.269-.367 1.507-.673 3.02-.928 4.536h-11.229c-.363-.982-.748-1.957-1.161-2.921 0-.025.004-.049.004-.074v-249.113h103.718zm-170.948-252.108v241.801c-1.57 1.565-2.706 3.54-3.249 5.771-.367 1.507-.673 3.02-.928 4.536h-11.229c-1.945-5.262-4.597-10.269-7.944-14.917-.001-.014-.001-.027-.002-.041-.767-6.9-4.09-12.939-8.963-17.229-.696-12.079-4.477-23.537-11.046-33.568 11.204-8.948 18.449-23.033 18.449-38.855 0-26.976-21.04-48.922-46.901-48.922-12.314 0-23.528 4.983-31.905 13.108v-111.684zm-71.813 181.42c-17.591 0-31.901-15.217-31.901-33.922s14.311-33.922 31.901-33.922 31.901 15.217 31.901 33.922-14.31 33.922-31.901 33.922zm-31.905 1.891c8.377 8.125 19.591 13.108 31.905 13.108 5.373 0 10.533-.96 15.345-2.703 4.051 5.945 6.826 12.559 8.225 19.557-.627-.044-1.259-.073-1.896-.073-14.265 0-25.971 11.141-26.889 25.178-1.072.169-2.131.465-3.15.925-3.462 1.561-5.963 4.575-6.862 8.269-.367 1.507-.673 3.02-.928 4.536h-15.75zm-15 83.797v141.199h-14.869v-141.199zm-29.869 141.199h-20.486c-4.987-8.458-18.156-37.164-4.223-86.355 7.548-26.648 6.203-44.461 3.661-54.843h21.048zm-46.838-168.152c0-6.591 5.362-11.954 11.954-11.954s11.954 5.363 11.954 11.954-5.362 11.954-11.954 11.954-11.954-5.363-11.954-11.954z"/></g></svg>