<svg id="Layer_1" enable-background="new 0 0 482 482" height="512" viewBox="0 0 482 482" width="512" xmlns="http://www.w3.org/2000/svg"><path d="m457 380.5h-397.021l118.881-125h82.14c4.971 0 9-4.029 9-9s-4.029-9-9-9h-77v-215c0-4.971-4.029-9-9-9s-9 4.029-9 9v220.404l-130.861 137.596h-10.139c-13.785 0-25 11.215-25 25v38c0 13.785 11.215 25 25 25h432c13.785 0 25-11.215 25-25v-38c0-13.785-11.215-25-25-25zm7 63c0 3.86-3.14 7-7 7h-432c-3.86 0-7-3.14-7-7v-38c0-3.86 3.14-7 7-7h432c3.86 0 7 3.14 7 7zm-166-421c0-4.971 4.029-9 9-9s9 4.029 9 9v220.404l101.536 106.762c5.468 5.748 1.319 15.202-6.52 15.202-2.379 0-4.754-.938-6.523-2.798-112.625-118.421-106.067-110.326-106.454-114.787-.061-.707-.039-223.098-.039-224.783zm38 402c0 4.971-4.029 9-9 9h-4c-4.971 0-9-4.029-9-9s4.029-9 9-9h4c4.971 0 9 4.029 9 9zm40 0c0 4.971-4.029 9-9 9h-4c-4.971 0-9-4.029-9-9s4.029-9 9-9h4c4.971 0 9 4.029 9 9zm40 0c0 4.971-4.029 9-9 9h-4c-4.971 0-9-4.029-9-9s4.029-9 9-9h4c4.971 0 9 4.029 9 9z"/></svg>